<?xml version="1.0" encoding="UTF-8"?>
<svg id="Layer_1" xmlns="http://www.w3.org/2000/svg" xmlns:xlink="http://www.w3.org/1999/xlink" version="1.1" viewBox="0 0 268.8 222.72">
  <!-- Generator: Adobe Illustrator 30.2.1, SVG Export Plug-In . SVG Version: 2.1.1 Build 1)  -->
  <defs>
    <style>
      .st0 {
        fill: url(#linear-gradient1);
      }

      .st1 {
        fill: url(#linear-gradient);
      }

      .st2 {
        fill: #87baab;
      }

      .st3 {
        fill: #4994b4;
      }

      .st4 {
        fill: #58a0b1;
      }

      .st5 {
        fill: #70adae;
      }

      .st6 {
        fill: #4987af;
      }
    </style>
    <linearGradient id="linear-gradient" x1="844.97" y1="819.67" x2="36.51" y2="1065.46" gradientTransform="translate(39.09 -127.78) scale(.24)" gradientUnits="userSpaceOnUse">
      <stop offset="0" stop-color="#b6d4a5"/>
      <stop offset=".58" stop-color="#4d9ab3"/>
      <stop offset=".9" stop-color="#3b78ba"/>
      <stop offset="1" stop-color="#3f68a0"/>
    </linearGradient>
    <linearGradient id="linear-gradient1" x1="507.94" y1="730.58" x2="102.96" y2="892.1" gradientTransform="translate(39.09 -127.78) scale(.24)" gradientUnits="userSpaceOnUse">
      <stop offset="0" stop-color="#78b1ad"/>
      <stop offset="1" stop-color="#427eaf"/>
    </linearGradient>
  </defs>
  <path class="st1" d="M181.28,46.03c-4.88-.08-9.76-.16-14.63-.24-8.92.21-18.57.21-27.58,0-7.73.21-16.16.21-23.98,0-12.28.18-24.62.2-37.03.05l.11-.29c1.62-4.34,6.62-9.65,10.25-12.8,13.09-11.33,29.35-16.21,46.44-18.35h91.32s-1.42,10.63-1.42,10.63c-2.36,11.92-5.96,23.48-11.39,34.33l-2.1,4.21c-5.95,11.89-16.42,25.06-26.28,34.13-8.66,7.97-17.95,15.01-28.34,20.51l-4.58,2.42c-8.17,4.32-18.12,8.2-26.89,11.21-10.68,3.67-19.71,7.15-28.2,14.76-3.91,3.5-7.06,7.5-9.78,12.03-6.85,11.39-10.32,24.01-12.58,37.06l-2.29,13.27c-.93-1.8-1.17-3.43-1.55-5.25l-5.84-27.87-2.78-16.9-2.19-15.81-1.21-12.46-.17-3.85c-.29-6.49.22-13.09,4.76-18.14,1.68-1.87,3.44-3.31,5.69-4.45,3.91-1.98,8.09-3.39,12.48-4,.66-.09,1.3-.22,1.97-.22l34.62-.14c2.97-.01,9.92-1.8,12.89-2.74,4.57-1.44,8.75-3.32,13.09-5.34,6.41-2.98,18.52-11.27,23.65-15.92l2.55-2.31c7.32-6.64,13.44-14.27,18.79-22.61.9-1.4,1.33-2.82,2.47-4.06.15-.16.06-.66-.02-.88h-10.25Z"/>
  <path class="st0" d="M92.8,85.35c-6.77.08-13.64.08-20.62,0-2.92-.03-5.82-.08-8.71-.15-.32.11-.64.22-.97.33,2.13-9.76,4.84-18.49,9.03-27.28h96.15s-8.35,8.28-8.35,8.28c-7.3,7.23-25.14,18.65-35.38,18.69l-31.16.13Z"/>
  <path class="st3" d="M115.1,45.79c.21.07.21.15,0,.24h-15.11c-7.23.21-14.82.21-22.06,0-.11-.24.18-.32.24-.48-.03.09.07.24.28.24h36.64Z"/>
  <path class="st5" d="M166.65,45.79c.21.07.21.15,0,.24h-27.58c-.21-.07-.21-.15,0-.24h27.58Z"/>
  <rect class="st4" x="115.1" y="45.79" width="23.98" height=".24"/>
  <path class="st6" d="M92.8,85.35h-20.62c6.68-.6,13.48,0,20.35-.29.17,0,.31.26.27.29Z"/>
  <path class="st2" d="M181.28,46.03h-14.63v-.24h14.36c.18,0,.29.15.26.24Z"/>
</svg>