<svg xmlns="http://www.w3.org/2000/svg" viewBox="0 0 18 18">
  <path fill="#EA4335" d="M17.64 9.205c0-.639-.057-1.252-.164-1.841H9v3.481h4.844a4.14 4.14 0 0 1-1.796 2.716v2.258h2.909c1.702-1.567 2.683-3.875 2.683-6.614Z"/>
  <path fill="#4285F4" d="M9 18c2.43 0 4.467-.806 5.957-2.181l-2.909-2.258c-.806.54-1.837.859-3.048.859-2.344 0-4.328-1.584-5.036-3.71H.956v2.332A9 9 0 0 0 9 18Z"/>
  <path fill="#FBBC05" d="M3.964 10.71A5.41 5.41 0 0 1 3.682 9c0-.594.102-1.171.282-1.71V4.958H.956A9 9 0 0 0 0 9c0 1.452.348 2.827.956 4.042l3.008-2.332Z"/>
  <path fill="#34A853" d="M9 3.58c1.321 0 2.508.454 3.442 1.345l2.582-2.582C13.463.891 11.426 0 9 0A9 9 0 0 0 .956 4.958L3.964 7.29C4.672 5.164 6.656 3.58 9 3.58Z"/>
</svg>
